solid ascii
 facet normal 0.999785 0 -0.0207219
  outer loop
   vertex -99 -95 -100
   vertex -99 -105 -100
   vertex -99.0009 -105 -100.042
  endloop
 endfacet
 facet normal 0.998043 0 -0.0625267
  outer loop
   vertex -99.0009 -95 -100.042
   vertex -99.0009 -105 -100.042
   vertex -99.0035 -105 -100.083
  endloop
 endfacet
 facet normal 0.994599 0 -0.103787
  outer loop
   vertex -99.0035 -95 -100.083
   vertex -99.0035 -105 -100.083
   vertex -99.0078 -105 -100.125
  endloop
 endfacet
 facet normal 0.989426 0 -0.14504
  outer loop
   vertex -99.0078 -95 -100.125
   vertex -99.0078 -105 -100.125
   vertex -99.0138 -105 -100.166
  endloop
 endfacet
 facet normal 0.982499 0 -0.18627
  outer loop
   vertex -99.0138 -95 -100.166
   vertex -99.0138 -105 -100.166
   vertex -99.0216 -105 -100.207
  endloop
 endfacet
 facet normal 0.973932 0 -0.226841
  outer loop
   vertex -99.0216 -95 -100.207
   vertex -99.0216 -105 -100.207
   vertex -99.031 -105 -100.247
  endloop
 endfacet
 facet normal 0.963647 0 -0.26718
  outer loop
   vertex -99.031 -95 -100.247
   vertex -99.031 -105 -100.247
   vertex -99.0421 -105 -100.287
  endloop
 endfacet
 facet normal 0.951719 0 -0.306971
  outer loop
   vertex -99.0421 -95 -100.287
   vertex -99.0421 -105 -100.287
   vertex -99.0549 -105 -100.327
  endloop
 endfacet
 facet normal 0.938096 0 -0.346377
  outer loop
   vertex -99.0549 -95 -100.327
   vertex -99.0549 -105 -100.327
   vertex -99.0693 -105 -100.366
  endloop
 endfacet
 facet normal 0.922887 0 -0.385071
  outer loop
   vertex -99.0693 -95 -100.366
   vertex -99.0693 -105 -100.366
   vertex -99.0853 -105 -100.404
  endloop
 endfacet
 facet normal 0.906061 0 -0.423146
  outer loop
   vertex -99.0853 -95 -100.404
   vertex -99.0853 -105 -100.404
   vertex -99.1029 -105 -100.442
  endloop
 endfacet
 facet normal 0.887691 0 -0.46044
  outer loop
   vertex -99.1029 -95 -100.442
   vertex -99.1029 -105 -100.442
   vertex -99.1221 -105 -100.479
  endloop
 endfacet
 facet normal 0.86769 0 -0.497106
  outer loop
   vertex -99.1221 -95 -100.479
   vertex -99.1221 -105 -100.479
   vertex -99.1428 -105 -100.515
  endloop
 endfacet
 facet normal 0.846429 0 -0.532502
  outer loop
   vertex -99.1428 -95 -100.515
   vertex -99.1428 -105 -100.515
   vertex -99.1649 -105 -100.55
  endloop
 endfacet
 facet normal 0.823346 0 -0.56754
  outer loop
   vertex -99.1649 -95 -100.55
   vertex -99.1649 -105 -100.55
   vertex -99.1885 -105 -100.584
  endloop
 endfacet
 facet normal 0.799163 0 -0.601114
  outer loop
   vertex -99.1885 -95 -100.584
   vertex -99.1885 -105 -100.584
   vertex -99.2136 -105 -100.618
  endloop
 endfacet
 facet normal 0.773426 0 -0.633887
  outer loop
   vertex -99.2136 -95 -100.618
   vertex -99.2136 -105 -100.618
   vertex -99.2399 -105 -100.65
  endloop
 endfacet
 facet normal 0.746377 0 -0.665524
  outer loop
   vertex -99.2399 -95 -100.65
   vertex -99.2399 -105 -100.65
   vertex -99.2676 -105 -100.681
  endloop
 endfacet
 facet normal 0.718114 0 -0.695925
  outer loop
   vertex -99.2676 -95 -100.681
   vertex -99.2676 -105 -100.681
   vertex -99.2966 -105 -100.711
  endloop
 endfacet
 facet normal 0.688345 0 -0.725384
  outer loop
   vertex -99.2966 -95 -100.711
   vertex -99.2966 -105 -100.711
   vertex -99.3268 -105 -100.739
  endloop
 endfacet
 facet normal 0.657725 0 -0.753258
  outer loop
   vertex -99.3268 -95 -100.739
   vertex -99.3268 -105 -100.739
   vertex -99.3581 -105 -100.767
  endloop
 endfacet
 facet normal 0.62588 0 -0.77992
  outer loop
   vertex -99.3581 -95 -100.767
   vertex -99.3581 -105 -100.767
   vertex -99.3905 -105 -100.793
  endloop
 endfacet
 facet normal 0.592817 0 -0.805337
  outer loop
   vertex -99.3905 -95 -100.793
   vertex -99.3905 -105 -100.793
   vertex -99.4241 -105 -100.817
  endloop
 endfacet
 facet normal 0.55884 0 -0.829276
  outer loop
   vertex -99.4241 -95 -100.817
   vertex -99.4241 -105 -100.817
   vertex -99.4586 -105 -100.841
  endloop
 endfacet
 facet normal 0.52377 0 -0.85186
  outer loop
   vertex -99.4586 -95 -100.841
   vertex -99.4586 -105 -100.841
   vertex -99.494 -105 -100.863
  endloop
 endfacet
 facet normal 0.487883 0 -0.872909
  outer loop
   vertex -99.494 -95 -100.863
   vertex -99.494 -105 -100.863
   vertex -99.5303 -105 -100.883
  endloop
 endfacet
 facet normal 0.451243 0 -0.892401
  outer loop
   vertex -99.5303 -95 -100.883
   vertex -99.5303 -105 -100.883
   vertex -99.5675 -105 -100.902
  endloop
 endfacet
 facet normal 0.413679 0 -0.910423
  outer loop
   vertex -99.5675 -95 -100.902
   vertex -99.5675 -105 -100.902
   vertex -99.6053 -105 -100.919
  endloop
 endfacet
 facet normal 0.37556 0 -0.926798
  outer loop
   vertex -99.6053 -95 -100.919
   vertex -99.6053 -105 -100.919
   vertex -99.6439 -105 -100.934
  endloop
 endfacet
 facet normal 0.336453 0 -0.9417
  outer loop
   vertex -99.6439 -95 -100.934
   vertex -99.6439 -105 -100.934
   vertex -99.6831 -105 -100.948
  endloop
 endfacet
 facet normal 0.297241 0 -0.954802
  outer loop
   vertex -99.6831 -95 -100.948
   vertex -99.6831 -105 -100.948
   vertex -99.7228 -105 -100.961
  endloop
 endfacet
 facet normal 0.257092 0 -0.966387
  outer loop
   vertex -99.7228 -95 -100.961
   vertex -99.7228 -105 -100.961
   vertex -99.763 -105 -100.972
  endloop
 endfacet
 facet normal 0.216736 0 -0.97623
  outer loop
   vertex -99.763 -95 -100.972
   vertex -99.763 -105 -100.972
   vertex -99.8036 -105 -100.981
  endloop
 endfacet
 facet normal 0.176013 0 -0.984388
  outer loop
   vertex -99.8036 -95 -100.981
   vertex -99.8036 -105 -100.981
   vertex -99.8446 -105 -100.988
  endloop
 endfacet
 facet normal 0.134794 0 -0.990874
  outer loop
   vertex -99.8446 -95 -100.988
   vertex -99.8446 -105 -100.988
   vertex -99.8858 -105 -100.993
  endloop
 endfacet
 facet normal 0.0935111 0 -0.995618
  outer loop
   vertex -99.8858 -95 -100.993
   vertex -99.8858 -105 -100.993
   vertex -99.9272 -105 -100.997
  endloop
 endfacet
 facet normal 0.0518947 0 -0.998653
  outer loop
   vertex -99.9272 -95 -100.997
   vertex -99.9272 -105 -100.997
   vertex -99.9688 -105 -101
  endloop
 endfacet
 facet normal 0.0104524 0 -0.999945
  outer loop
   vertex -99.9688 -95 -101
   vertex -99.9688 -105 -101
   vertex -100.01 -105 -101
  endloop
 endfacet
 facet normal -0.0311718 0 -0.999514
  outer loop
   vertex -100.01 -95 -101
   vertex -100.01 -105 -101
   vertex -100.052 -105 -100.999
  endloop
 endfacet
 facet normal -0.0727844 0 -0.997348
  outer loop
   vertex -100.052 -95 -100.999
   vertex -100.052 -105 -100.999
   vertex -100.093 -105 -100.996
  endloop
 endfacet
 facet normal -0.114255 0 -0.993451
  outer loop
   vertex -100.093 -95 -100.996
   vertex -100.093 -105 -100.996
   vertex -100.135 -105 -100.991
  endloop
 endfacet
 facet normal -0.155294 0 -0.987868
  outer loop
   vertex -100.135 -95 -100.991
   vertex -100.135 -105 -100.991
   vertex -100.176 -105 -100.984
  endloop
 endfacet
 facet normal -0.196398 0 -0.980524
  outer loop
   vertex -100.176 -95 -100.984
   vertex -100.176 -105 -100.984
   vertex -100.217 -105 -100.976
  endloop
 endfacet
 facet normal -0.237095 0 -0.971486
  outer loop
   vertex -100.217 -95 -100.976
   vertex -100.217 -105 -100.976
   vertex -100.257 -105 -100.966
  endloop
 endfacet
 facet normal -0.277069 0 -0.96085
  outer loop
   vertex -100.257 -95 -100.966
   vertex -100.257 -105 -100.966
   vertex -100.297 -105 -100.955
  endloop
 endfacet
 facet normal -0.316998 0 -0.948426
  outer loop
   vertex -100.297 -95 -100.955
   vertex -100.297 -105 -100.955
   vertex -100.337 -105 -100.942
  endloop
 endfacet
 facet normal -0.356102 0 -0.934447
  outer loop
   vertex -100.337 -95 -100.942
   vertex -100.337 -105 -100.942
   vertex -100.375 -105 -100.927
  endloop
 endfacet
 facet normal -0.394605 0 -0.918851
  outer loop
   vertex -100.375 -95 -100.927
   vertex -100.375 -105 -100.927
   vertex -100.414 -105 -100.91
  endloop
 endfacet
 facet normal -0.432558 0 -0.901606
  outer loop
   vertex -100.414 -95 -100.91
   vertex -100.414 -105 -100.91
   vertex -100.451 -105 -100.892
  endloop
 endfacet
 facet normal -0.469665 0 -0.882845
  outer loop
   vertex -100.451 -95 -100.892
   vertex -100.451 -105 -100.892
   vertex -100.488 -105 -100.873
  endloop
 endfacet
 facet normal -0.506058 0 -0.862499
  outer loop
   vertex -100.488 -95 -100.873
   vertex -100.488 -105 -100.873
   vertex -100.524 -105 -100.852
  endloop
 endfacet
 facet normal -0.541471 0 -0.840719
  outer loop
   vertex -100.524 -95 -100.852
   vertex -100.524 -105 -100.852
   vertex -100.559 -105 -100.829
  endloop
 endfacet
 facet normal -0.575761 0 -0.817618
  outer loop
   vertex -100.559 -95 -100.829
   vertex -100.559 -105 -100.829
   vertex -100.593 -105 -100.805
  endloop
 endfacet
 facet normal -0.609551 0 -0.792747
  outer loop
   vertex -100.593 -95 -100.805
   vertex -100.593 -105 -100.805
   vertex -100.626 -105 -100.78
  endloop
 endfacet
 facet normal -0.641914 0 -0.766777
  outer loop
   vertex -100.626 -95 -100.78
   vertex -100.626 -105 -100.78
   vertex -100.658 -105 -100.753
  endloop
 endfacet
 facet normal -0.673229 0 -0.739434
  outer loop
   vertex -100.658 -95 -100.753
   vertex -100.658 -105 -100.753
   vertex -100.688 -105 -100.725
  endloop
 endfacet
 facet normal -0.703431 0 -0.710764
  outer loop
   vertex -100.688 -95 -100.725
   vertex -100.688 -105 -100.725
   vertex -100.718 -105 -100.696
  endloop
 endfacet
 facet normal -0.732401 0 -0.680873
  outer loop
   vertex -100.718 -95 -100.696
   vertex -100.718 -105 -100.696
   vertex -100.746 -105 -100.666
  endloop
 endfacet
 facet normal -0.760059 0 -0.649855
  outer loop
   vertex -100.746 -95 -100.666
   vertex -100.746 -105 -100.666
   vertex -100.773 -105 -100.634
  endloop
 endfacet
 facet normal -0.786401 0 -0.617716
  outer loop
   vertex -100.773 -95 -100.634
   vertex -100.773 -105 -100.634
   vertex -100.799 -105 -100.601
  endloop
 endfacet
 facet normal -0.811447 0 -0.584425
  outer loop
   vertex -100.799 -95 -100.601
   vertex -100.799 -105 -100.601
   vertex -100.823 -105 -100.567
  endloop
 endfacet
 facet normal -0.835085 0 -0.550122
  outer loop
   vertex -100.823 -95 -100.567
   vertex -100.823 -105 -100.567
   vertex -100.846 -105 -100.533
  endloop
 endfacet
 facet normal -0.85725 0 -0.5149
  outer loop
   vertex -100.846 -95 -100.533
   vertex -100.846 -105 -100.533
   vertex -100.868 -105 -100.497
  endloop
 endfacet
 facet normal -0.877868 0 -0.478904
  outer loop
   vertex -100.868 -95 -100.497
   vertex -100.868 -105 -100.497
   vertex -100.888 -105 -100.46
  endloop
 endfacet
 facet normal -0.897052 0 -0.441925
  outer loop
   vertex -100.888 -95 -100.46
   vertex -100.888 -105 -100.46
   vertex -100.906 -105 -100.423
  endloop
 endfacet
 facet normal -0.914687 0 -0.404164
  outer loop
   vertex -100.906 -95 -100.423
   vertex -100.906 -105 -100.423
   vertex -100.923 -105 -100.385
  endloop
 endfacet
 facet normal -0.930698 0 -0.365789
  outer loop
   vertex -100.923 -95 -100.385
   vertex -100.923 -105 -100.385
   vertex -100.938 -105 -100.346
  endloop
 endfacet
 facet normal -0.945104 0 -0.32677
  outer loop
   vertex -100.938 -95 -100.346
   vertex -100.938 -105 -100.346
   vertex -100.952 -105 -100.307
  endloop
 endfacet
 facet normal -0.957887 0 -0.287146
  outer loop
   vertex -100.952 -95 -100.307
   vertex -100.952 -105 -100.307
   vertex -100.964 -105 -100.267
  endloop
 endfacet
 facet normal -0.96901 0 -0.247021
  outer loop
   vertex -100.964 -95 -100.267
   vertex -100.964 -105 -100.267
   vertex -100.974 -105 -100.227
  endloop
 endfacet
 facet normal -0.978415 0 -0.206648
  outer loop
   vertex -100.974 -95 -100.227
   vertex -100.974 -105 -100.227
   vertex -100.983 -105 -100.186
  endloop
 endfacet
 facet normal -0.9862 0 -0.165558
  outer loop
   vertex -100.983 -95 -100.186
   vertex -100.983 -105 -100.186
   vertex -100.989 -105 -100.145
  endloop
 endfacet
 facet normal -0.992219 0 -0.124509
  outer loop
   vertex -100.989 -95 -100.145
   vertex -100.989 -105 -100.145
   vertex -100.995 -105 -100.104
  endloop
 endfacet
 facet normal -0.996528 0 -0.083258
  outer loop
   vertex -100.995 -95 -100.104
   vertex -100.995 -105 -100.104
   vertex -100.998 -105 -100.062
  endloop
 endfacet
 facet normal -0.999133 0 -0.0416229
  outer loop
   vertex -100.998 -95 -100.062
   vertex -100.998 -105 -100.062
   vertex -101 -105 -100.021
  endloop
 endfacet
 facet normal -1 0 0
  outer loop
   vertex -101 -95 -100.021
   vertex -101 -105 -100.021
   vertex -101 -105 -99.9792
  endloop
 endfacet
 facet normal -0.999133 0 0.0416229
  outer loop
   vertex -101 -95 -99.9792
   vertex -101 -105 -99.9792
   vertex -100.998 -105 -99.9376
  endloop
 endfacet
 facet normal -0.996528 0 0.083258
  outer loop
   vertex -100.998 -95 -99.9376
   vertex -100.998 -105 -99.9376
   vertex -100.995 -105 -99.8962
  endloop
 endfacet
 facet normal -0.992219 0 0.124509
  outer loop
   vertex -100.995 -95 -99.8962
   vertex -100.995 -105 -99.8962
   vertex -100.989 -105 -99.8549
  endloop
 endfacet
 facet normal -0.9862 0 0.165558
  outer loop
   vertex -100.989 -95 -99.8549
   vertex -100.989 -105 -99.8549
   vertex -100.983 -105 -99.8138
  endloop
 endfacet
 facet normal -0.978415 0 0.206648
  outer loop
   vertex -100.983 -95 -99.8138
   vertex -100.983 -105 -99.8138
   vertex -100.974 -105 -99.7731
  endloop
 endfacet
 facet normal -0.96901 0 0.247021
  outer loop
   vertex -100.974 -95 -99.7731
   vertex -100.974 -105 -99.7731
   vertex -100.964 -105 -99.7328
  endloop
 endfacet
 facet normal -0.957887 0 0.287146
  outer loop
   vertex -100.964 -95 -99.7328
   vertex -100.964 -105 -99.7328
   vertex -100.952 -105 -99.693
  endloop
 endfacet
 facet normal -0.945104 0 0.32677
  outer loop
   vertex -100.952 -95 -99.693
   vertex -100.952 -105 -99.693
   vertex -100.938 -105 -99.6536
  endloop
 endfacet
 facet normal -0.930698 0 0.365789
  outer loop
   vertex -100.938 -95 -99.6536
   vertex -100.938 -105 -99.6536
   vertex -100.923 -105 -99.6149
  endloop
 endfacet
 facet normal -0.914687 0 0.404164
  outer loop
   vertex -100.923 -95 -99.6149
   vertex -100.923 -105 -99.6149
   vertex -100.906 -105 -99.5769
  endloop
 endfacet
 facet normal -0.897052 0 0.441925
  outer loop
   vertex -100.906 -95 -99.5769
   vertex -100.906 -105 -99.5769
   vertex -100.888 -105 -99.5395
  endloop
 endfacet
 facet normal -0.877868 0 0.478904
  outer loop
   vertex -100.888 -95 -99.5395
   vertex -100.888 -105 -99.5395
   vertex -100.868 -105 -99.503
  endloop
 endfacet
 facet normal -0.85725 0 0.5149
  outer loop
   vertex -100.868 -95 -99.503
   vertex -100.868 -105 -99.503
   vertex -100.846 -105 -99.4673
  endloop
 endfacet
 facet normal -0.835085 0 0.550122
  outer loop
   vertex -100.846 -95 -99.4673
   vertex -100.846 -105 -99.4673
   vertex -100.823 -105 -99.4326
  endloop
 endfacet
 facet normal -0.811447 0 0.584425
  outer loop
   vertex -100.823 -95 -99.4326
   vertex -100.823 -105 -99.4326
   vertex -100.799 -105 -99.3988
  endloop
 endfacet
 facet normal -0.786401 0 0.617716
  outer loop
   vertex -100.799 -95 -99.3988
   vertex -100.799 -105 -99.3988
   vertex -100.773 -105 -99.3661
  endloop
 endfacet
 facet normal -0.760059 0 0.649855
  outer loop
   vertex -100.773 -95 -99.3661
   vertex -100.773 -105 -99.3661
   vertex -100.746 -105 -99.3345
  endloop
 endfacet
 facet normal -0.732401 0 0.680873
  outer loop
   vertex -100.746 -95 -99.3345
   vertex -100.746 -105 -99.3345
   vertex -100.718 -105 -99.304
  endloop
 endfacet
 facet normal -0.703431 0 0.710764
  outer loop
   vertex -100.718 -95 -99.304
   vertex -100.718 -105 -99.304
   vertex -100.688 -105 -99.2747
  endloop
 endfacet
 facet normal -0.673229 0 0.739434
  outer loop
   vertex -100.688 -95 -99.2747
   vertex -100.688 -105 -99.2747
   vertex -100.658 -105 -99.2467
  endloop
 endfacet
 facet normal -0.641914 0 0.766777
  outer loop
   vertex -100.658 -95 -99.2467
   vertex -100.658 -105 -99.2467
   vertex -100.626 -105 -99.22
  endloop
 endfacet
 facet normal -0.609551 0 0.792747
  outer loop
   vertex -100.626 -95 -99.22
   vertex -100.626 -105 -99.22
   vertex -100.593 -105 -99.1947
  endloop
 endfacet
 facet normal -0.575761 0 0.817618
  outer loop
   vertex -100.593 -95 -99.1947
   vertex -100.593 -105 -99.1947
   vertex -100.559 -105 -99.1707
  endloop
 endfacet
 facet normal -0.541471 0 0.840719
  outer loop
   vertex -100.559 -95 -99.1707
   vertex -100.559 -105 -99.1707
   vertex -100.524 -105 -99.1482
  endloop
 endfacet
 facet normal -0.506058 0 0.862499
  outer loop
   vertex -100.524 -95 -99.1482
   vertex -100.524 -105 -99.1482
   vertex -100.488 -105 -99.1271
  endloop
 endfacet
 facet normal -0.469665 0 0.882845
  outer loop
   vertex -100.488 -95 -99.1271
   vertex -100.488 -105 -99.1271
   vertex -100.451 -105 -99.1076
  endloop
 endfacet
 facet normal -0.432558 0 0.901606
  outer loop
   vertex -100.451 -95 -99.1076
   vertex -100.451 -105 -99.1076
   vertex -100.414 -105 -99.0896
  endloop
 endfacet
 facet normal -0.394605 0 0.918851
  outer loop
   vertex -100.414 -95 -99.0896
   vertex -100.414 -105 -99.0896
   vertex -100.375 -105 -99.0732
  endloop
 endfacet
 facet normal -0.356102 0 0.934447
  outer loop
   vertex -100.375 -95 -99.0732
   vertex -100.375 -105 -99.0732
   vertex -100.337 -105 -99.0583
  endloop
 endfacet
 facet normal -0.316998 0 0.948426
  outer loop
   vertex -100.337 -95 -99.0583
   vertex -100.337 -105 -99.0583
   vertex -100.297 -105 -99.0452
  endloop
 endfacet
 facet normal -0.277069 0 0.96085
  outer loop
   vertex -100.297 -95 -99.0452
   vertex -100.297 -105 -99.0452
   vertex -100.257 -105 -99.0336
  endloop
 endfacet
 facet normal -0.237095 0 0.971486
  outer loop
   vertex -100.257 -95 -99.0336
   vertex -100.257 -105 -99.0336
   vertex -100.217 -105 -99.0238
  endloop
 endfacet
 facet normal -0.196398 0 0.980524
  outer loop
   vertex -100.217 -95 -99.0238
   vertex -100.217 -105 -99.0238
   vertex -100.176 -105 -99.0156
  endloop
 endfacet
 facet normal -0.155294 0 0.987868
  outer loop
   vertex -100.176 -95 -99.0156
   vertex -100.176 -105 -99.0156
   vertex -100.135 -105 -99.0091
  endloop
 endfacet
 facet normal -0.114255 0 0.993451
  outer loop
   vertex -100.135 -95 -99.0091
   vertex -100.135 -105 -99.0091
   vertex -100.093 -105 -99.0044
  endloop
 endfacet
 facet normal -0.0727844 0 0.997348
  outer loop
   vertex -100.093 -95 -99.0044
   vertex -100.093 -105 -99.0044
   vertex -100.052 -105 -99.0014
  endloop
 endfacet
 facet normal -0.0311718 0 0.999514
  outer loop
   vertex -100.052 -95 -99.0014
   vertex -100.052 -105 -99.0014
   vertex -100.01 -105 -99.0001
  endloop
 endfacet
 facet normal 0.0104524 -0 0.999945
  outer loop
   vertex -100.01 -95 -99.0001
   vertex -100.01 -105 -99.0001
   vertex -99.9688 -105 -99.0005
  endloop
 endfacet
 facet normal 0.0518947 -0 0.998653
  outer loop
   vertex -99.9688 -95 -99.0005
   vertex -99.9688 -105 -99.0005
   vertex -99.9272 -105 -99.0026
  endloop
 endfacet
 facet normal 0.0935111 -0 0.995618
  outer loop
   vertex -99.9272 -95 -99.0026
   vertex -99.9272 -105 -99.0026
   vertex -99.8858 -105 -99.0065
  endloop
 endfacet
 facet normal 0.134794 -0 0.990874
  outer loop
   vertex -99.8858 -95 -99.0065
   vertex -99.8858 -105 -99.0065
   vertex -99.8446 -105 -99.0121
  endloop
 endfacet
 facet normal 0.176013 -0 0.984388
  outer loop
   vertex -99.8446 -95 -99.0121
   vertex -99.8446 -105 -99.0121
   vertex -99.8036 -105 -99.0195
  endloop
 endfacet
 facet normal 0.216736 -0 0.97623
  outer loop
   vertex -99.8036 -95 -99.0195
   vertex -99.8036 -105 -99.0195
   vertex -99.763 -105 -99.0285
  endloop
 endfacet
 facet normal 0.257092 -0 0.966387
  outer loop
   vertex -99.763 -95 -99.0285
   vertex -99.763 -105 -99.0285
   vertex -99.7228 -105 -99.0392
  endloop
 endfacet
 facet normal 0.297241 -0 0.954802
  outer loop
   vertex -99.7228 -95 -99.0392
   vertex -99.7228 -105 -99.0392
   vertex -99.6831 -105 -99.0516
  endloop
 endfacet
 facet normal 0.336453 -0 0.9417
  outer loop
   vertex -99.6831 -95 -99.0516
   vertex -99.6831 -105 -99.0516
   vertex -99.6439 -105 -99.0656
  endloop
 endfacet
 facet normal 0.37556 -0 0.926798
  outer loop
   vertex -99.6439 -95 -99.0656
   vertex -99.6439 -105 -99.0656
   vertex -99.6053 -105 -99.0812
  endloop
 endfacet
 facet normal 0.413679 -0 0.910423
  outer loop
   vertex -99.6053 -95 -99.0812
   vertex -99.6053 -105 -99.0812
   vertex -99.5675 -105 -99.0984
  endloop
 endfacet
 facet normal 0.451243 -0 0.892401
  outer loop
   vertex -99.5675 -95 -99.0984
   vertex -99.5675 -105 -99.0984
   vertex -99.5303 -105 -99.1172
  endloop
 endfacet
 facet normal 0.487883 -0 0.872909
  outer loop
   vertex -99.5303 -95 -99.1172
   vertex -99.5303 -105 -99.1172
   vertex -99.494 -105 -99.1375
  endloop
 endfacet
 facet normal 0.52377 -0 0.85186
  outer loop
   vertex -99.494 -95 -99.1375
   vertex -99.494 -105 -99.1375
   vertex -99.4586 -105 -99.1593
  endloop
 endfacet
 facet normal 0.55884 -0 0.829276
  outer loop
   vertex -99.4586 -95 -99.1593
   vertex -99.4586 -105 -99.1593
   vertex -99.4241 -105 -99.1825
  endloop
 endfacet
 facet normal 0.592817 -0 0.805337
  outer loop
   vertex -99.4241 -95 -99.1825
   vertex -99.4241 -105 -99.1825
   vertex -99.3905 -105 -99.2072
  endloop
 endfacet
 facet normal 0.62588 -0 0.77992
  outer loop
   vertex -99.3905 -95 -99.2072
   vertex -99.3905 -105 -99.2072
   vertex -99.3581 -105 -99.2332
  endloop
 endfacet
 facet normal 0.657725 -0 0.753258
  outer loop
   vertex -99.3581 -95 -99.2332
   vertex -99.3581 -105 -99.2332
   vertex -99.3268 -105 -99.2606
  endloop
 endfacet
 facet normal 0.688345 -0 0.725384
  outer loop
   vertex -99.3268 -95 -99.2606
   vertex -99.3268 -105 -99.2606
   vertex -99.2966 -105 -99.2892
  endloop
 endfacet
 facet normal 0.718114 -0 0.695925
  outer loop
   vertex -99.2966 -95 -99.2892
   vertex -99.2966 -105 -99.2892
   vertex -99.2676 -105 -99.3191
  endloop
 endfacet
 facet normal 0.746377 -0 0.665524
  outer loop
   vertex -99.2676 -95 -99.3191
   vertex -99.2676 -105 -99.3191
   vertex -99.2399 -105 -99.3502
  endloop
 endfacet
 facet normal 0.773426 -0 0.633887
  outer loop
   vertex -99.2399 -95 -99.3502
   vertex -99.2399 -105 -99.3502
   vertex -99.2136 -105 -99.3823
  endloop
 endfacet
 facet normal 0.799163 -0 0.601114
  outer loop
   vertex -99.2136 -95 -99.3823
   vertex -99.2136 -105 -99.3823
   vertex -99.1885 -105 -99.4156
  endloop
 endfacet
 facet normal 0.823346 -0 0.56754
  outer loop
   vertex -99.1885 -95 -99.4156
   vertex -99.1885 -105 -99.4156
   vertex -99.1649 -105 -99.4498
  endloop
 endfacet
 facet normal 0.846429 -0 0.532502
  outer loop
   vertex -99.1649 -95 -99.4498
   vertex -99.1649 -105 -99.4498
   vertex -99.1428 -105 -99.4851
  endloop
 endfacet
 facet normal 0.86769 -0 0.497106
  outer loop
   vertex -99.1428 -95 -99.4851
   vertex -99.1428 -105 -99.4851
   vertex -99.1221 -105 -99.5212
  endloop
 endfacet
 facet normal 0.887691 -0 0.46044
  outer loop
   vertex -99.1221 -95 -99.5212
   vertex -99.1221 -105 -99.5212
   vertex -99.1029 -105 -99.5581
  endloop
 endfacet
 facet normal 0.906061 -0 0.423146
  outer loop
   vertex -99.1029 -95 -99.5581
   vertex -99.1029 -105 -99.5581
   vertex -99.0853 -105 -99.5958
  endloop
 endfacet
 facet normal 0.922887 -0 0.385071
  outer loop
   vertex -99.0853 -95 -99.5958
   vertex -99.0853 -105 -99.5958
   vertex -99.0693 -105 -99.6342
  endloop
 endfacet
 facet normal 0.938096 -0 0.346377
  outer loop
   vertex -99.0693 -95 -99.6342
   vertex -99.0693 -105 -99.6342
   vertex -99.0549 -105 -99.6732
  endloop
 endfacet
 facet normal 0.951719 -0 0.306971
  outer loop
   vertex -99.0549 -95 -99.6732
   vertex -99.0549 -105 -99.6732
   vertex -99.0421 -105 -99.7128
  endloop
 endfacet
 facet normal 0.963647 -0 0.26718
  outer loop
   vertex -99.0421 -95 -99.7128
   vertex -99.0421 -105 -99.7128
   vertex -99.031 -105 -99.7529
  endloop
 endfacet
 facet normal 0.973932 -0 0.226841
  outer loop
   vertex -99.031 -95 -99.7529
   vertex -99.031 -105 -99.7529
   vertex -99.0216 -105 -99.7934
  endloop
 endfacet
 facet normal 0.982499 -0 0.18627
  outer loop
   vertex -99.0216 -95 -99.7934
   vertex -99.0216 -105 -99.7934
   vertex -99.0138 -105 -99.8343
  endloop
 endfacet
 facet normal 0.989426 -0 0.14504
  outer loop
   vertex -99.0138 -95 -99.8343
   vertex -99.0138 -105 -99.8343
   vertex -99.0078 -105 -99.8755
  endloop
 endfacet
 facet normal 0.994599 -0 0.103787
  outer loop
   vertex -99.0078 -95 -99.8755
   vertex -99.0078 -105 -99.8755
   vertex -99.0035 -105 -99.9169
  endloop
 endfacet
 facet normal 0.998043 -0 0.0625267
  outer loop
   vertex -99.0035 -95 -99.9169
   vertex -99.0035 -105 -99.9169
   vertex -99.0009 -105 -99.9584
  endloop
 endfacet
 facet normal 0.999785 -0 0.0207219
  outer loop
   vertex -99.0009 -95 -99.9584
   vertex -99.0009 -105 -99.9584
   vertex -99 -105 -100
  endloop
 endfacet
 facet normal 0 1 -0
  outer loop
   vertex -99 -95 -100
   vertex -99.0009 -95 -100.042
   vertex -99.0035 -95 -100.083
  endloop
 endfacet
 facet normal -0 -1 -0
  outer loop
   vertex -99.0009 -105 -99.9584
   vertex -99.0035 -105 -99.9169
   vertex -99.0078 -105 -99.8755
  endloop
 endfacet
endsolid
